<?xml version="1.0" encoding="UTF-8"?>
<!DOCTYPE svg PUBLIC "-//W3C//DTD SVG 1.1//EN" "http://www.w3.org/Graphics/SVG/1.1/DTD/svg11.dtd">
<svg xmlns="http://www.w3.org/2000/svg" version="1.1" width="501px" height="497px" style="shape-rendering:geometricPrecision; text-rendering:geometricPrecision; image-rendering:optimizeQuality; fill-rule:evenodd; clip-rule:evenodd" xmlns:xlink="http://www.w3.org/1999/xlink">
<g><path style="opacity:0.991" fill="#fa328a" d="M 37.5,-0.5 C 43.1667,-0.5 48.8333,-0.5 54.5,-0.5C 85.1534,9.11851 96.9867,29.7852 90,61.5C 77.93,86.9501 58.0967,96.4501 30.5,90C 13.7693,83.1145 3.43598,70.9478 -0.5,53.5C -0.5,48.5 -0.5,43.5 -0.5,38.5C 4.05021,17.6162 16.7169,4.61618 37.5,-0.5 Z"/></g>
<g><path style="opacity:0.999" fill="#345dca" d="M 234.5,-0.5 C 239.5,-0.5 244.5,-0.5 249.5,-0.5C 278.551,8.11002 290.051,27.4434 284,57.5C 281.895,63.9273 278.561,69.594 274,74.5C 207.5,141 141,207.5 74.5,274C 59.48,286.205 42.8134,288.872 24.5,282C 10.6716,274.807 2.33822,263.641 -0.5,248.5C -0.5,243.833 -0.5,239.167 -0.5,234.5C 1.69487,226.11 5.5282,218.444 11,211.5C 78.1667,144.333 145.333,77.1667 212.5,10C 219.131,4.85478 226.464,1.35478 234.5,-0.5 Z"/></g>
<g><path style="opacity:0.996" fill="#fa328a" d="M 432.5,-0.5 C 437.833,-0.5 443.167,-0.5 448.5,-0.5C 479.044,9.58027 489.877,30.2469 481,61.5C 479,64.8333 477,68.1667 475,71.5C 340.5,206 206,340.5 71.5,475C 49.533,489.072 29.033,487.239 10,469.5C 4.85478,462.869 1.35478,455.536 -0.5,447.5C -0.5,442.833 -0.5,438.167 -0.5,433.5C 1.04289,426.397 3.87622,419.73 8,413.5C 143.167,278.333 278.333,143.167 413.5,8C 419.453,4.08108 425.786,1.24775 432.5,-0.5 Z"/></g>
<g><path style="opacity:0.999" fill="#345dc9" d="M 435.5,197.5 C 471.241,199.327 487.074,217.994 483,253.5C 481.47,258.892 479.137,263.892 476,268.5C 406.833,337.667 337.667,406.833 268.5,476C 250.833,487.333 233.167,487.333 215.5,476C 198.903,461.78 194.069,444.28 201,423.5C 202.934,419.241 205.268,415.241 208,411.5C 275.833,343.667 343.667,275.833 411.5,208C 418.752,202.535 426.752,199.035 435.5,197.5 Z"/></g>
<g><path style="opacity:0.991" fill="#fa328a" d="M 430.5,391.5 C 459.263,389.79 477.096,402.79 484,430.5C 486.148,459.681 472.981,477.514 444.5,484C 415.953,485.48 398.453,472.313 392,444.5C 390.487,416.207 403.321,398.54 430.5,391.5 Z"/></g>
</svg>
